<svg xmlns="http://www.w3.org/2000/svg" width="1600" height="400" viewBox="0 0 1600 400" role="img" aria-label="Ansible banner">
  <defs>
    <linearGradient id="bg" x1="0" y1="0" x2="1" y2="1">
      <stop offset="0%" stop-color="#111827"/>
      <stop offset="100%" stop-color="#334155"/>
    </linearGradient>
  </defs>
  <rect width="1600" height="400" fill="url(#bg)"/>
  <circle cx="280" cy="330" r="180" fill="#94a3b8" fill-opacity="0.1"/>
  <circle cx="1470" cy="70" r="160" fill="#cbd5e1" fill-opacity="0.12"/>
  <g transform="translate(1300 75) scale(3.8)">
    <g transform="translate(97.62 147.24)">
      <path d="M-33.62-115.24c0 17.674-14.326 32-32 32s-32-14.326-32-32 14.328-32 32-32 32 14.328 32 32" fill="#fff" fill-opacity="0.15"/>
      <path d="M-65.08-127.692l8.28 20.438-12.508-9.853zm14.7 25.147L-63.108-133.2c-.364-.884-1.1-1.352-1.973-1.352s-1.664.468-2.028 1.352L-81.1-99.576h4.783l5.534-13.863 16.515 13.343c.664.537 1.144.78 1.767.78 1.248 0 2.338-.936 2.338-2.286 0-.22-.078-.57-.218-.944z" fill="#fff"/>
    </g>
  </g>
  <text x="90" y="210" font-family="Segoe UI, Arial, sans-serif" font-size="76" font-weight="700" fill="#f1f5f9">Ansible Automation</text>
  <text x="92" y="268" font-family="Segoe UI, Arial, sans-serif" font-size="30" fill="#cbd5e1">Infrastructure as Code, orchestration, and system configuration.</text>
</svg>
