<svg xmlns="http://www.w3.org/2000/svg" width="1600" height="400" viewBox="0 0 1600 400" role="img" aria-label="C++ banner">
  <defs>
    <linearGradient id="bg" x1="0" y1="0" x2="1" y2="1">
      <stop offset="0%" stop-color="#0f172a"/>
      <stop offset="100%" stop-color="#1d4ed8"/>
    </linearGradient>
  </defs>
  <rect width="1600" height="400" fill="url(#bg)"/>
  <circle cx="1320" cy="80" r="170" fill="#60a5fa" fill-opacity="0.15"/>
  <circle cx="1450" cy="280" r="220" fill="#bfdbfe" fill-opacity="0.12"/>
  <g transform="translate(1275 125) scale(8.8)">
    <path fill="#dbeafe" d="M22.394 6c-.167-.29-.398-.543-.652-.69L12.926.22c-.509-.294-1.34-.294-1.848 0L2.26 5.31c-.508.293-.923 1.013-.923 1.6v10.18c0 .294.104.62.271.91.167.29.398.543.652.69l8.816 5.09c.508.293 1.34.293 1.848 0l8.816-5.09c.254-.147.485-.4.652-.69.167-.29.27-.616.27-.91V6.91c.003-.294-.1-.62-.268-.91zM12 19.11c-3.92 0-7.109-3.19-7.109-7.11 0-3.92 3.19-7.11 7.11-7.11a7.133 7.133 0 016.156 3.553l-3.076 1.78a3.567 3.567 0 00-3.08-1.78A3.56 3.56 0 008.444 12 3.56 3.56 0 0012 15.555a3.57 3.57 0 003.08-1.778l3.078 1.78A7.135 7.135 0 0112 19.11zm7.11-6.715h-.79v.79h-.79v-.79h-.79v-.79h.79v-.79h.79v.79h.79zm2.962 0h-.79v.79h-.79v-.79h-.79v-.79h.79v-.79h.79v.79h.79z"/>
  </g>
  <text x="90" y="210" font-family="Segoe UI, Arial, sans-serif" font-size="76" font-weight="700" fill="#e2e8f0">C++ Repositories</text>
  <text x="92" y="268" font-family="Segoe UI, Arial, sans-serif" font-size="30" fill="#cbd5e1">Core engineering work, reusable utilities, and solved problems.</text>
</svg>
