<svg xmlns="http://www.w3.org/2000/svg" width="1600" height="400" viewBox="0 0 1600 400" role="img" aria-label="DevTools banner">
  <defs>
    <linearGradient id="bg" x1="0" y1="0" x2="1" y2="1">
      <stop offset="0%" stop-color="#0f172a"/>
      <stop offset="100%" stop-color="#4c1d95"/>
    </linearGradient>
  </defs>
  <rect width="1600" height="400" fill="url(#bg)"/>
  <circle cx="1320" cy="310" r="220" fill="#c4b5fd" fill-opacity="0.12"/>
  <circle cx="220" cy="90" r="150" fill="#ddd6fe" fill-opacity="0.16"/>
  <g transform="translate(1258 118)">
    <rect x="30" y="18" width="26" height="18" rx="3" fill="#f5f3ff" fill-opacity="0.78"/>
    <rect x="59" y="18" width="26" height="18" rx="3" fill="#f5f3ff" fill-opacity="0.78"/>
    <rect x="88" y="18" width="26" height="18" rx="3" fill="#f5f3ff" fill-opacity="0.78"/>
    <rect x="117" y="18" width="26" height="18" rx="3" fill="#f5f3ff" fill-opacity="0.78"/>
    <rect x="45" y="40" width="26" height="18" rx="3" fill="#f5f3ff" fill-opacity="0.72"/>
    <rect x="74" y="40" width="26" height="18" rx="3" fill="#f5f3ff" fill-opacity="0.72"/>
    <rect x="103" y="40" width="26" height="18" rx="3" fill="#f5f3ff" fill-opacity="0.72"/>
    <path d="M18 86 C18 68 33 60 53 60 H150 C172 60 192 70 198 86 C203 100 193 112 175 116 C167 127 151 135 132 136 H78 C53 136 32 125 24 110 H8 C3 110 0 106 0 102 C0 98 3 94 8 94 H23 C20 91 18 89 18 86 Z" fill="#f5f3ff" fill-opacity="0.78"/>
    <circle cx="152" cy="83" r="3.8" fill="#4c1d95"/>
    <path d="M199 88 C212 84 224 90 231 100 C219 102 207 96 199 88 Z" fill="#f5f3ff" fill-opacity="0.78"/>
  </g>
  <text x="90" y="210" font-family="Segoe UI, Arial, sans-serif" font-size="76" font-weight="700" fill="#f5f3ff">DevTools</text>
  <text x="92" y="268" font-family="Segoe UI, Arial, sans-serif" font-size="30" fill="#ede9fe">Developer scripts and tooling to speed up daily engineering workflows.</text>
</svg>
